# xmcd
# 
# Track frame offsets:
#     150
#     12010
#     24329
#     36104
#     47233
#     56693
#     68947
#     80572
#     92572
#     103551
#     114558
#     126671
#     137284
#     146725
#     158650
#     170397
#     182154
#     193859
#     205784
#     218338
#     230263
#     243763
#     254826
#     267848
# 
# Disc length: 3723
# 
# Revision: 2
# Processed by: cddbd v1.5.2PL0 Copyright (c) Steve Scherf et al.
# Submitted via: fre:ac v1.1beta1pre5
# 
DISCID=4d0e8918
DTITLE=Bobby Bland - Two steps from the blues (TDRE)
DYEAR=2012
DGENRE=Blues
TTITLE0=Two steps from the blues
TTITLE1=Cry,cry.cry
TTITLE2=I'm not ashamed
TTITLE3=Don't cry no more
TTITLE4=Lead me on
TTITLE5=I pity the fool
TTITLE6=I've just got to forget you
TTITLE7=Little Boy Blue
TTITLE8=St. James Infirmary
TTITLE9=I'll take care of you
TTITLE10=I don't want no woman
TTITLE11=I've been wrong so long
TTITLE12=Close to you (bonus)
TTITLE13=How does a cheatin' woman feel? (bonus)
TTITLE14=You did me wrong (bonus)
TTITLE15=I lost sight on the world (bonus)
TTITLE16=Wishing well (bonus)
TTITLE17=I don't believe (bonus)
TTITLE18=I learned my lesson (bonus)
TTITLE19=I can't put you down baby (bonus)
TTITLE20=Farther up the road (bonus)
TTITLE21=Loan a helping hand (bonus)
TTITLE22=Last night (bonus)
TTITLE23=You've got bad intentions (bonus)
EXTD=
EXTT0=
EXTT1=
EXTT2=
EXTT3=
EXTT4=
EXTT5=
EXTT6=
EXTT7=
EXTT8=
EXTT9=
EXTT10=
EXTT11=
EXTT12=
EXTT13=
EXTT14=
EXTT15=
EXTT16=
EXTT17=
EXTT18=
EXTT19=
EXTT20=
EXTT21=
EXTT22=
EXTT23=
PLAYORDER=
